<svg width="212" height="228" viewBox="0 0 212 228" fill="none" xmlns="http://www.w3.org/2000/svg">
<path d="M191.486 183.853C192.795 184.912 192.583 186.881 191.124 187.72L124.446 226.049C118.13 229.679 110.402 225.906 110.615 218.625L111.475 160.466C111.649 148.766 124.554 141.761 134.459 147.99L191.486 183.853ZM0 79.2637C0 72.2746 7.04247 67.7693 12.918 71.5544L94.3089 122.74C98.7827 125.553 101.446 130.514 101.319 135.797L99.3711 217.041C99.2246 224.203 91.4646 228.298 85.2539 224.728L7.52461 180.047C2.86973 177.371 0 172.411 0 167.042V79.2637ZM204.475 49.5327C209.13 52.2085 212 57.1682 212 62.5373V121.673C212 133.469 199.013 140.649 189.023 134.377L123.451 93.2018C118.987 90.3987 116.322 85.4582 116.431 80.1881L117.829 12.6452C117.949 6.8082 124.276 3.4321 129.338 6.34163L204.475 49.5327ZM89.73 2.27791C97.3661 -2.11153 106.641 2.25462 106.585 11.0622L106.043 55.3238C105.9 67.0363 92.9873 74.0724 83.0675 67.8433L36.2178 38.4245C34.0089 37.0195 34.424 34.0695 36.6936 32.7649L89.73 2.27791Z" fill="#00696B"/>
</svg>
