<svg width="88" height="100" viewBox="0 0 88 100" fill="none" xmlns="http://www.w3.org/2000/svg">
<path d="M54.916 92.5625C54.9577 92.7291 54.9936 92.8844 55.0273 93.0273L43.7324 99.5205L18.8711 85.2295C19.1698 84.8261 19.486 84.4142 19.8213 83.9951L41.1787 56.4932L54.916 92.5625ZM87.2324 24.5049V74.5156L69.7021 84.5918L53.75 42.792L73.0391 18.2549C73.3882 17.8105 73.7375 17.375 74.085 16.9473L87.2324 24.5049ZM24.1055 11.6641L39.3936 51.8057L16.5264 80.7002C15.9393 81.4474 15.3537 82.1712 14.7715 82.873L0.232422 74.5156V24.5049L23.8301 10.9395C23.9218 11.177 24.0148 11.4181 24.1055 11.6641ZM70.0098 14.6045C69.9218 14.7216 69.8347 14.8413 69.7441 14.96L51.9287 38.0205L39.9219 6.55664C39.5924 5.67809 39.4277 4.96417 39.4277 4.41504C39.4277 2.98719 40.0321 1.889 41.2402 1.12012C42.2461 0.48002 43.3663 0.107222 44.6006 0L70.0098 14.6045Z" fill="#F4FBFA"/>
</svg>
